<svg width="14" height="14" viewBox="0 0 14 14" fill="none" xmlns="http://www.w3.org/2000/svg">
<g clip-path="url(#clip0_1222_46881)">
<path d="M0.896057 2.68115C1.1498 3.36112 1.63213 3.87578 2.1245 4.24016" stroke="white" stroke-linecap="round" stroke-linejoin="round"/>
<path d="M6.75049 4.9021H4.89551" stroke="white" stroke-linecap="round" stroke-linejoin="round"/>
<path d="M9.8335 6.40381C9.69542 6.40381 9.5835 6.29188 9.5835 6.15381C9.5835 6.01574 9.69542 5.90381 9.8335 5.90381" stroke="white" stroke-linecap="round" stroke-linejoin="round"/>
<path d="M9.8335 6.40381C9.97157 6.40381 10.0835 6.29188 10.0835 6.15381C10.0835 6.01574 9.97157 5.90381 9.8335 5.90381" stroke="white" stroke-linecap="round" stroke-linejoin="round"/>
<path d="M10.6041 1.27653V3.35061C12.1665 4.00161 12.4478 5.1125 12.4478 6.56411L13.3228 7.28286V9.50161C12.8071 10.611 11.854 11.1891 10.6041 11.6319V12.6162C10.6041 12.8924 10.3802 13.1162 10.1041 13.1162H8.35417C8.07802 13.1162 7.85417 12.8924 7.85417 12.6162V11.6319H4.71354V12.5381C4.71354 12.8143 4.48968 13.0381 4.21354 13.0381H2.44788C2.17171 13.0381 1.94784 12.8148 1.94787 12.5386C1.94794 11.9328 1.94801 10.9677 1.94781 10.7672C1.94776 10.7207 1.85569 10.4652 1.73684 10.0694C1.38881 8.91023 0.811122 6.95402 1.642 5.1125C2.33855 3.56872 4.02501 2.39105 7.66656 2.59536C8.18946 1.21406 9.57275 0.853527 10.2791 0.885452C10.4802 0.894539 10.6041 1.07527 10.6041 1.27653Z" stroke="white" stroke-linecap="round" stroke-linejoin="round"/>
</g>
<defs>
<clipPath id="clip0_1222_46881">
<rect width="14" height="14" fill="white"/>
</clipPath>
</defs>
</svg>
