<svg width="186" height="50" viewBox="0 0 186 50" fill="none" xmlns="http://www.w3.org/2000/svg">
<rect x="1.18262" y="1" width="3" height="48" fill="black"/>
<rect x="1.03879" y="0.856175" width="3.28765" height="48.2877" stroke="black" stroke-opacity="0.6" stroke-width="0.287649"/>
<rect x="5.78516" y="1" width="2" height="48" fill="black"/>
<rect x="5.64133" y="0.856175" width="2.28765" height="48.2877" stroke="black" stroke-opacity="0.6" stroke-width="0.287649"/>
<rect x="10.3877" y="1" width="2" height="48" fill="black"/>
<rect x="10.2439" y="0.856175" width="2.28765" height="48.2877" stroke="black" stroke-opacity="0.6" stroke-width="0.287649"/>
<rect x="19.0166" y="1" width="2" height="48" fill="black"/>
<rect x="18.8728" y="0.856175" width="2.28765" height="48.2877" stroke="black" stroke-opacity="0.6" stroke-width="0.287649"/>
<rect x="33.9746" y="1" width="1" height="48" fill="black"/>
<rect x="33.8308" y="0.856175" width="1.28765" height="48.2877" stroke="black" stroke-opacity="0.6" stroke-width="0.287649"/>
<rect x="37.4268" y="1" width="1" height="48" fill="black"/>
<rect x="37.2829" y="0.856175" width="1.28765" height="48.2877" stroke="black" stroke-opacity="0.6" stroke-width="0.287649"/>
<rect x="40.3027" y="1" width="5" height="48" fill="black"/>
<rect x="40.1589" y="0.856175" width="5.28765" height="48.2877" stroke="black" stroke-opacity="0.6" stroke-width="0.287649"/>
<rect x="50.083" y="1" width="3" height="48" fill="black"/>
<rect x="49.9392" y="0.856175" width="3.28765" height="48.2877" stroke="black" stroke-opacity="0.6" stroke-width="0.287649"/>
<rect x="55.2607" y="1" width="1" height="48" fill="black"/>
<rect x="55.1169" y="0.856175" width="1.28765" height="48.2877" stroke="black" stroke-opacity="0.6" stroke-width="0.287649"/>
<rect x="59.8633" y="1" width="5" height="48" fill="black"/>
<rect x="59.7195" y="0.856175" width="5.28765" height="48.2877" stroke="black" stroke-opacity="0.6" stroke-width="0.287649"/>
<rect x="66.7666" y="1" width="3" height="48" fill="black"/>
<rect x="66.6228" y="0.856175" width="3.28765" height="48.2877" stroke="black" stroke-opacity="0.6" stroke-width="0.287649"/>
<rect x="73.0947" y="1" width="3" height="48" fill="black"/>
<rect x="72.9509" y="0.856175" width="3.28765" height="48.2877" stroke="black" stroke-opacity="0.6" stroke-width="0.287649"/>
<rect x="79.9985" y="1" width="4" height="48" fill="black"/>
<rect x="79.8547" y="0.856175" width="4.28765" height="48.2877" stroke="black" stroke-opacity="0.6" stroke-width="0.287649"/>
<rect x="86.3267" y="1" width="1" height="48" fill="black"/>
<rect x="86.1828" y="0.856175" width="1.28765" height="48.2877" stroke="black" stroke-opacity="0.6" stroke-width="0.287649"/>
<rect x="90.9292" y="1" width="1" height="48" fill="black"/>
<rect x="90.7854" y="0.856175" width="1.28765" height="48.2877" stroke="black" stroke-opacity="0.6" stroke-width="0.287649"/>
<rect x="97.833" y="1" width="1" height="48" fill="black"/>
<rect x="97.6892" y="0.856175" width="1.28765" height="48.2877" stroke="black" stroke-opacity="0.6" stroke-width="0.287649"/>
<rect x="101.285" y="1" width="3" height="48" fill="black"/>
<rect x="101.141" y="0.856175" width="3.28765" height="48.2877" stroke="black" stroke-opacity="0.6" stroke-width="0.287649"/>
<rect x="109.339" y="1" width="3" height="48" fill="black"/>
<rect x="109.195" y="0.856175" width="3.28765" height="48.2877" stroke="black" stroke-opacity="0.6" stroke-width="0.287649"/>
<rect x="115.667" y="1" width="5" height="48" fill="black"/>
<rect x="115.523" y="0.856175" width="5.28765" height="48.2877" stroke="black" stroke-opacity="0.6" stroke-width="0.287649"/>
<rect x="123.721" y="1" width="2" height="48" fill="black"/>
<rect x="123.577" y="0.856175" width="2.28765" height="48.2877" stroke="black" stroke-opacity="0.6" stroke-width="0.287649"/>
<rect x="127.173" y="1" width="2" height="48" fill="black"/>
<rect x="127.029" y="0.856175" width="2.28765" height="48.2877" stroke="black" stroke-opacity="0.6" stroke-width="0.287649"/>
<rect x="132.351" y="1" width="4" height="48" fill="black"/>
<rect x="132.207" y="0.856175" width="4.28765" height="48.2877" stroke="black" stroke-opacity="0.6" stroke-width="0.287649"/>
<rect x="138.679" y="1" width="3" height="48" fill="black"/>
<rect x="138.535" y="0.856175" width="3.28765" height="48.2877" stroke="black" stroke-opacity="0.6" stroke-width="0.287649"/>
<rect x="145.007" y="1" width="6" height="48" fill="black"/>
<rect x="144.863" y="0.856175" width="6.28765" height="48.2877" stroke="black" stroke-opacity="0.6" stroke-width="0.287649"/>
<rect x="153.637" y="1" width="1" height="48" fill="black"/>
<rect x="153.493" y="0.856175" width="1.28765" height="48.2877" stroke="black" stroke-opacity="0.6" stroke-width="0.287649"/>
<rect x="156.513" y="1" width="1" height="48" fill="black"/>
<rect x="156.369" y="0.856175" width="1.28765" height="48.2877" stroke="black" stroke-opacity="0.6" stroke-width="0.287649"/>
<rect x="163.417" y="1" width="3" height="48" fill="black"/>
<rect x="163.273" y="0.856175" width="3.28765" height="48.2877" stroke="black" stroke-opacity="0.6" stroke-width="0.287649"/>
<rect x="171.471" y="1" width="5" height="48" fill="black"/>
<rect x="171.327" y="0.856175" width="5.28765" height="48.2877" stroke="black" stroke-opacity="0.6" stroke-width="0.287649"/>
<rect x="177.799" y="1" width="2" height="48" fill="black"/>
<rect x="177.655" y="0.856175" width="2.28765" height="48.2877" stroke="black" stroke-opacity="0.6" stroke-width="0.287649"/>
<rect x="181.826" y="1" width="3" height="48" fill="black"/>
<rect x="181.682" y="0.856175" width="3.28765" height="48.2877" stroke="black" stroke-opacity="0.6" stroke-width="0.287649"/>
<rect x="22.4688" y="1" width="6" height="48" fill="black"/>
<rect x="22.3249" y="0.856175" width="6.28765" height="48.2877" stroke="black" stroke-opacity="0.6" stroke-width="0.287649"/>
</svg>
