<svg width="24" height="24" viewBox="0 0 24 24" fill="none" xmlns="http://www.w3.org/2000/svg">
<path fill-rule="evenodd" clip-rule="evenodd" d="M13.5137 3.80552C14.5868 2.73077 16.3274 2.73011 17.4013 3.80405L19.8932 6.2959C20.958 7.36068 20.969 9.08444 19.918 10.1628L10.6848 19.6361C9.97932 20.3599 9.01165 20.7681 8.00122 20.7681L5.24908 20.768C3.96983 20.7679 2.94821 19.7015 3.00202 18.4224L3.12017 15.6134C3.15967 14.6744 3.54995 13.7844 4.21378 13.1195L13.5137 3.80552ZM16.3415 4.86551C15.8533 4.37736 15.0622 4.37766 14.5744 4.86618L12.9113 6.53178L17.1911 10.8116L18.8446 9.11505C19.3223 8.62488 19.3173 7.84136 18.8333 7.35737L16.3415 4.86551ZM5.27444 14.1802L11.8514 7.59325L16.144 11.8858L9.61146 18.5883C9.18814 19.0226 8.60755 19.2675 8.00129 19.2675L5.24914 19.2674C4.82273 19.2674 4.48219 18.9119 4.50012 18.4856L4.61828 15.6765C4.64197 15.1131 4.87614 14.5791 5.27444 14.1802ZM20.5148 20.6948C20.9289 20.6948 21.2645 20.3589 21.2645 19.9445C21.2645 19.5301 20.9289 19.1942 20.5148 19.1942H14.3931C13.979 19.1942 13.6434 19.5301 13.6434 19.9445C13.6434 20.3589 13.979 20.6948 14.3931 20.6948H20.5148Z" fill="white"/>
</svg>
